<svg width="300" height="180" xmlns="http://www.w3.org/2000/svg"><rect width="300" height="180" fill="white"/><rect x="60" y="15" width="180" height="12" rx="4" fill="#02585C"/><g transform="translate(15,45)"><rect width="60" height="110" rx="8" fill="white" stroke="#E5E7EB" stroke-width="1.5"/><text x="10" y="25" font-size="10" fill="#F5A3B0" font-family="sans-serif">01</text><rect x="10" y="35" width="40" height="8" rx="3" fill="#02585C"/><rect x="10" y="50" width="40" height="5" rx="2" fill="#E5E7EB"/></g><g transform="translate(85,45)"><rect width="60" height="110" rx="8" fill="white" stroke="#E5E7EB" stroke-width="1.5"/><text x="10" y="25" font-size="10" fill="#F5A3B0" font-family="sans-serif">02</text><rect x="10" y="35" width="40" height="8" rx="3" fill="#02585C"/><rect x="10" y="50" width="40" height="5" rx="2" fill="#E5E7EB"/></g><g transform="translate(155,45)"><rect width="60" height="110" rx="8" fill="white" stroke="#E5E7EB" stroke-width="1.5"/><text x="10" y="25" font-size="10" fill="#F5A3B0" font-family="sans-serif">03</text><rect x="10" y="35" width="40" height="8" rx="3" fill="#02585C"/><rect x="10" y="50" width="40" height="5" rx="2" fill="#E5E7EB"/></g><g transform="translate(225,45)"><rect width="60" height="110" rx="8" fill="white" stroke="#E5E7EB" stroke-width="1.5"/><text x="10" y="25" font-size="10" fill="#F5A3B0" font-family="sans-serif">04</text><rect x="10" y="35" width="40" height="8" rx="3" fill="#02585C"/><rect x="10" y="50" width="40" height="5" rx="2" fill="#E5E7EB"/></g></svg>
