<svg width="300" height="180" xmlns="http://www.w3.org/2000/svg"><rect width="300" height="180" fill="white"/><rect x="80" y="15" width="140" height="12" rx="4" fill="#02585C"/><g transform="translate(25,50)"><rect width="115" height="100" rx="10" fill="white" stroke="#E5E7EB" stroke-width="1.5"/><circle cx="25" cy="30" r="8" fill="none" stroke="#F5A3B0" stroke-width="2"/><circle cx="25" cy="27" r="3" fill="#F5A3B0"/><rect x="15" y="50" width="60" height="10" rx="3" fill="#02585C"/><rect x="15" y="66" width="80" height="6" rx="3" fill="#E5E7EB"/><rect x="15" y="78" width="70" height="6" rx="3" fill="#E5E7EB"/></g><g transform="translate(160,50)"><rect width="115" height="100" rx="10" fill="white" stroke="#E5E7EB" stroke-width="1.5"/><circle cx="25" cy="30" r="8" fill="none" stroke="#F5A3B0" stroke-width="2"/><circle cx="25" cy="27" r="3" fill="#F5A3B0"/><rect x="15" y="50" width="60" height="10" rx="3" fill="#02585C"/><rect x="15" y="66" width="80" height="6" rx="3" fill="#E5E7EB"/><rect x="15" y="78" width="70" height="6" rx="3" fill="#E5E7EB"/></g></svg>
