<svg width="300" height="180" xmlns="http://www.w3.org/2000/svg"><rect width="300" height="180" fill="white"/><rect x="15" y="15" width="160" height="12" rx="4" fill="#02585C"/><g transform="translate(15,45)"><rect width="83" height="110" rx="8" fill="white" stroke="#E5E7EB" stroke-width="1.5"/><text x="10" y="30" font-family="serif" font-size="22" fill="#F5A3B0" opacity=".6">"</text><rect x="10" y="40" width="63" height="6" rx="3" fill="#02585C" opacity=".5"/><rect x="10" y="52" width="50" height="6" rx="3" fill="#02585C" opacity=".5"/><rect x="10" y="85" width="40" height="7" rx="3" fill="#02585C"/><rect x="10" y="97" width="30" height="5" rx="2" fill="#E5E7EB"/></g><g transform="translate(108,45)"><rect width="83" height="110" rx="8" fill="white" stroke="#E5E7EB" stroke-width="1.5"/><text x="10" y="30" font-family="serif" font-size="22" fill="#F5A3B0" opacity=".6">"</text><rect x="10" y="40" width="63" height="6" rx="3" fill="#02585C" opacity=".5"/><rect x="10" y="52" width="50" height="6" rx="3" fill="#02585C" opacity=".5"/><rect x="10" y="85" width="40" height="7" rx="3" fill="#02585C"/><rect x="10" y="97" width="30" height="5" rx="2" fill="#E5E7EB"/></g><g transform="translate(201,45)"><rect width="83" height="110" rx="8" fill="white" stroke="#E5E7EB" stroke-width="1.5"/><text x="10" y="30" font-family="serif" font-size="22" fill="#F5A3B0" opacity=".6">"</text><rect x="10" y="40" width="63" height="6" rx="3" fill="#02585C" opacity=".5"/><rect x="10" y="52" width="50" height="6" rx="3" fill="#02585C" opacity=".5"/><rect x="10" y="85" width="40" height="7" rx="3" fill="#02585C"/><rect x="10" y="97" width="30" height="5" rx="2" fill="#E5E7EB"/></g></svg>
