<svg width="300" height="180" xmlns="http://www.w3.org/2000/svg"><rect width="300" height="180" fill="white"/><rect x="55" y="16" width="190" height="12" rx="4" fill="#02585C"/><g transform="translate(28,46)"><rect width="244" height="108" rx="10" fill="white" stroke="#D4ECEC" stroke-width="2"/><rect width="244" height="28" rx="10" fill="#02585C"/><rect y="18" width="244" height="10" fill="#02585C"/><line x1="82" y1="0" x2="82" y2="108" stroke="#D4ECEC" stroke-width="1.5"/><line x1="164" y1="0" x2="164" y2="108" stroke="#D4ECEC" stroke-width="1.5"/><line x1="0" y1="28" x2="244" y2="28" stroke="#D4ECEC" stroke-width="1.5"/><line x1="0" y1="55" x2="244" y2="55" stroke="#ECF7F7" stroke-width="1.5"/><line x1="0" y1="82" x2="244" y2="82" stroke="#ECF7F7" stroke-width="1.5"/><rect x="14" y="10" width="42" height="5" rx="2" fill="white" opacity=".9"/><rect x="96" y="10" width="42" height="5" rx="2" fill="white" opacity=".9"/><rect x="178" y="10" width="42" height="5" rx="2" fill="white" opacity=".9"/><rect x="14" y="39" width="46" height="5" rx="2" fill="#F5A3B0"/><rect x="96" y="39" width="44" height="5" rx="2" fill="#4A6365" opacity=".35"/><rect x="178" y="39" width="44" height="5" rx="2" fill="#4A6365" opacity=".35"/><rect x="14" y="66" width="46" height="5" rx="2" fill="#F5A3B0"/><rect x="96" y="66" width="44" height="5" rx="2" fill="#4A6365" opacity=".35"/><rect x="178" y="66" width="44" height="5" rx="2" fill="#4A6365" opacity=".35"/><rect x="14" y="93" width="46" height="5" rx="2" fill="#F5A3B0"/><rect x="96" y="93" width="44" height="5" rx="2" fill="#4A6365" opacity=".35"/><rect x="178" y="93" width="44" height="5" rx="2" fill="#4A6365" opacity=".35"/></g></svg>
