<svg width="300" height="180" xmlns="http://www.w3.org/2000/svg"><rect width="300" height="180" fill="white"/><rect x="80" y="10" width="140" height="12" rx="4" fill="#02585C"/><g transform="translate(10,40)"><rect width="85" height="120" rx="8" fill="white" stroke="#E5E7EB" stroke-width="1.5"/><text x="10" y="22" font-family="serif" font-size="20" fill="#F5A3B0">"</text><rect x="10" y="30" width="65" height="5" rx="2" fill="#E5E7EB"/><rect x="10" y="40" width="55" height="5" rx="2" fill="#E5E7EB"/><circle cx="25" cy="90" r="10" fill="#02585C" opacity=".2"/><rect x="42" y="85" width="35" height="6" rx="3" fill="#02585C" opacity=".5"/></g><g transform="translate(105,40)"><rect width="85" height="120" rx="8" fill="white" stroke="#E5E7EB" stroke-width="1.5"/><text x="10" y="22" font-family="serif" font-size="20" fill="#F5A3B0">"</text><rect x="10" y="30" width="65" height="5" rx="2" fill="#E5E7EB"/><rect x="10" y="40" width="55" height="5" rx="2" fill="#E5E7EB"/><circle cx="25" cy="90" r="10" fill="#02585C" opacity=".2"/><rect x="42" y="85" width="35" height="6" rx="3" fill="#02585C" opacity=".5"/></g><g transform="translate(200,40)"><rect width="85" height="120" rx="8" fill="white" stroke="#E5E7EB" stroke-width="1.5"/><text x="10" y="22" font-family="serif" font-size="20" fill="#F5A3B0">"</text><rect x="10" y="30" width="65" height="5" rx="2" fill="#E5E7EB"/><rect x="10" y="40" width="55" height="5" rx="2" fill="#E5E7EB"/><circle cx="25" cy="90" r="10" fill="#02585C" opacity=".2"/><rect x="42" y="85" width="35" height="6" rx="3" fill="#02585C" opacity=".5"/></g></svg>
