<svg width="300" height="180" xmlns="http://www.w3.org/2000/svg"><rect width="300" height="180" fill="white"/><rect x="55" y="18" width="160" height="12" rx="4" fill="#02585C"/><g transform="translate(0,95)"><circle cx="42" cy="0" r="18" fill="#02585C"/><text x="42" y="5" font-size="14" fill="white" font-family="sans-serif" text-anchor="middle">1</text><text x="80" y="6" font-size="18" fill="#F5A3B0" text-anchor="middle">→</text><circle cx="118" cy="0" r="18" fill="#02585C"/><text x="118" y="5" font-size="14" fill="white" font-family="sans-serif" text-anchor="middle">2</text><text x="156" y="6" font-size="18" fill="#F5A3B0" text-anchor="middle">→</text><circle cx="194" cy="0" r="18" fill="#02585C"/><text x="194" y="5" font-size="14" fill="white" font-family="sans-serif" text-anchor="middle">3</text><text x="232" y="6" font-size="18" fill="#F5A3B0" text-anchor="middle">→</text><circle cx="270" cy="0" r="18" fill="#02585C"/><text x="270" y="5" font-size="14" fill="white" font-family="sans-serif" text-anchor="middle">4</text></g><g font-family="sans-serif" text-anchor="middle"><rect x="24" y="128" width="36" height="5" rx="2" fill="#02585C"/><rect x="100" y="128" width="36" height="5" rx="2" fill="#02585C"/><rect x="176" y="128" width="36" height="5" rx="2" fill="#02585C"/><rect x="252" y="128" width="36" height="5" rx="2" fill="#02585C"/></g><rect x="40" y="150" width="220" height="14" rx="7" fill="#ECF7F7" stroke="#D4ECEC"/></svg>
