<svg xmlns="http://www.w3.org/2000/svg" id="Calque_1" data-name="Calque 1" viewBox="0 0 1080 1080"><defs><style>      .cls-1 {        fill: #02585c;      }      .cls-2 {        fill: #f5a3b0;      }    </style></defs><path class="cls-1" d="M845.33,510.86l-4.91-5.47-178.87-199.08L418.88,36.22c-4.97-5.54-12.07-8.7-19.51-8.7h-160.54c-11.35,0-17.34,13.44-9.76,21.88l414.6,461.46c11.98,17.64,11.98,40.64,0,58.28l-414.6,461.46c-7.58,8.44-1.59,21.88,9.76,21.88h160.54c7.44,0,14.54-3.16,19.51-8.7l242.67-270.09,178.87-199.07,4.91-5.47c11.98-17.64,11.98-40.64,0-58.28Z"></path><g><path class="cls-2" d="M721.88,27.5h114.51c9.85,0,17.83,7.98,17.83,17.83v324.46c0,18.72-23.09,27.57-35.61,13.65l-109.34-121.7c-3.37-3.75-5.23-8.61-5.23-13.65V45.33c0-9.85,7.98-17.83,17.83-17.83Z"></path><path class="cls-2" d="M721.88,1052.5h114.51c9.85,0,17.83-7.98,17.83-17.83v-324.46c0-18.72-23.09-27.57-35.61-13.65l-109.34,121.7c-3.37,3.75-5.23,8.61-5.23,13.65v202.76c0,9.85,7.98,17.83,17.83,17.83Z"></path></g></svg>